<svg width="1465" height="363" viewBox="0 0 1465 363" fill="none" xmlns="http://www.w3.org/2000/svg">
<g clip-path="url(#clip0_14:70)">
<path d="M462.52 218.7V234H393.76V110.16H411.04V218.7H462.52ZM520.988 235.98C505.988 235.98 494.828 232.74 487.508 226.26C480.188 219.66 476.528 209.28 476.528 195.12V110.16H493.808V195.48C493.808 212.28 502.748 220.68 520.628 220.68C529.988 220.68 536.948 218.64 541.508 214.56C546.188 210.48 548.528 204.12 548.528 195.48V110.16H565.628V195.12C565.628 209.28 561.908 219.66 554.468 226.26C547.148 232.74 535.988 235.98 520.988 235.98ZM630.871 180.72L611.431 181.98V234H594.151V110.16H611.431V166.86L630.871 165.6L658.951 110.16H678.571L645.811 172.44L680.191 234H660.031L630.871 180.72ZM761.942 205.02H711.902L704.162 234H687.062L719.102 110.16H754.742L786.782 234H769.682L761.942 205.02ZM715.502 189.72H758.342L741.602 124.74H732.242L715.502 189.72ZM838.589 235.8C830.309 235.8 819.149 234.66 805.109 232.38L798.629 231.3L800.429 217.44C816.629 219.6 828.989 220.68 837.509 220.68C853.709 220.68 861.809 213.3 861.809 198.54C861.809 194.46 860.969 191.22 859.289 188.82C857.609 186.3 854.909 184.32 851.189 182.88C847.589 181.32 842.489 179.82 835.889 178.38C826.169 176.1 818.609 173.58 813.209 170.82C807.809 167.94 803.849 164.28 801.329 159.84C798.809 155.4 797.549 149.58 797.549 142.38C797.549 130.98 800.969 122.4 807.809 116.64C814.649 110.88 824.729 108 838.049 108C842.969 108 848.249 108.3 853.889 108.9C859.649 109.5 867.209 110.58 876.569 112.14L875.129 126.18C858.689 124.26 846.809 123.3 839.489 123.3C823.049 123.3 814.829 129.3 814.829 141.3C814.829 145.74 815.729 149.22 817.529 151.74C819.449 154.26 822.449 156.36 826.529 158.04C830.609 159.6 836.789 161.34 845.069 163.26C853.709 165.42 860.429 167.82 865.229 170.46C870.029 173.1 873.509 176.52 875.669 180.72C877.949 184.92 879.089 190.44 879.089 197.28C879.089 210 875.609 219.6 868.649 226.08C861.809 232.56 851.789 235.8 838.589 235.8ZM1005.57 205.02H955.534L947.794 234H930.694L962.734 110.16H998.374L1030.41 234H1013.31L1005.57 205.02ZM959.134 189.72H1001.97L985.234 124.74H975.874L959.134 189.72ZM1141.23 110.16V234H1124.13V179.46H1066.35V234H1049.07V110.16H1066.35V164.16H1124.13V110.16H1141.23ZM1239.47 218.7V234H1170.71V110.16H1187.99V218.7H1239.47ZM1290.87 235.8C1282.59 235.8 1271.43 234.66 1257.39 232.38L1250.91 231.3L1252.71 217.44C1268.91 219.6 1281.27 220.68 1289.79 220.68C1305.99 220.68 1314.09 213.3 1314.09 198.54C1314.09 194.46 1313.25 191.22 1311.57 188.82C1309.89 186.3 1307.19 184.32 1303.47 182.88C1299.87 181.32 1294.77 179.82 1288.17 178.38C1278.45 176.1 1270.89 173.58 1265.49 170.82C1260.09 167.94 1256.13 164.28 1253.61 159.84C1251.09 155.4 1249.83 149.58 1249.83 142.38C1249.83 130.98 1253.25 122.4 1260.09 116.64C1266.93 110.88 1277.01 108 1290.33 108C1295.25 108 1300.53 108.3 1306.17 108.9C1311.93 109.5 1319.49 110.58 1328.85 112.14L1327.41 126.18C1310.97 124.26 1299.09 123.3 1291.77 123.3C1275.33 123.3 1267.11 129.3 1267.11 141.3C1267.11 145.74 1268.01 149.22 1269.81 151.74C1271.73 154.26 1274.73 156.36 1278.81 158.04C1282.89 159.6 1289.07 161.34 1297.35 163.26C1305.99 165.42 1312.71 167.82 1317.51 170.46C1322.31 173.1 1325.79 176.52 1327.95 180.72C1330.23 184.92 1331.37 190.44 1331.37 197.28C1331.37 210 1327.89 219.6 1320.93 226.08C1314.09 232.56 1304.07 235.8 1290.87 235.8ZM1371.51 125.28V163.8H1420.11V178.74H1371.51V218.88H1430.91V234H1354.23V110.16H1430.91V125.28H1371.51Z" fill="white"/>
<circle cx="184" cy="179" r="150" fill="black"/>
<path d="M131 82V251H251" stroke="white" stroke-width="40"/>
<path d="M181 221V173.205M231 221V173.205M231 173.205V102H181V173.205M231 173.205H181" stroke="white" stroke-width="40"/>
</g>
<defs>
<clipPath id="clip0_14:70">
<rect width="1465" height="363" fill="white"/>
</clipPath>
</defs>
</svg>
